PathFileType	4	(X/Y/Z)	/Users/niels/Desktop/University/Third Semester/Perception and Action/Exam/Gymnastics Motion Tracking/Code for Gym Tracking/Analyzed Data/Webcam_Backflip/id2_2_baseline_Sports2D/id2_2_baseline_Sports2D_px_person00.trc
DataRate	CameraRate	NumFrames	NumMarkers	Units	OrigDataRate	OrigDataStartFrame	OrigNumFrames
29.87551867219917	29.87551867219917	11	22	m	29.87551867219917	90	241
Frame#	Time	Hip			RHip			RKnee			RAnkle			RBigToe			RSmallToe			RHeel			LHip			LKnee			LAnkle			LBigToe			LSmallToe			LHeel			Neck			Head			Nose			RShoulder			RElbow			RWrist			LShoulder			LElbow			LWrist		
		X1	Y1	Z1	X2	Y2	Z2	X3	Y3	Z3	X4	Y4	Z4	X5	Y5	Z5	X6	Y6	Z6	X7	Y7	Z7	X8	Y8	Z8	X9	Y9	Z9	X10	Y10	Z10	X11	Y11	Z11	X12	Y12	Z12	X13	Y13	Z13	X14	Y14	Z14	X15	Y15	Z15	X16	Y16	Z16	X17	Y17	Z17	X18	Y18	Z18	X19	Y19	Z19	X20	Y20	Z20	X21	Y21	Z21	X22	Y22	Z22
90	3.0125	0.905797101835238	-0.5235502853100534	0.0	0.9038007148173637	-0.5208730085752136	0.0	0.9665628984427611	-0.6221110144412247	0.0	0.9306106267720733	-0.7392560898955551	0.0	0.9723336663597109	-0.7693822292567257	0.0	0.9612704586527444	-0.7722845411806867	0.0	0.916913891797861	-0.7527720092244755	0.0	0.9007889175430901	-0.5194978123914094	0.0	0.9638930219842626	-0.6221830213250038	0.0	0.9361202148152429	-0.7320064048276522	0.0	0.9703498087015341	-0.7593879599304425	0.0	0.9692128421818109	-0.7561884712960487	0.0	0.916372671265315	-0.7470209962076945	0.0	0.9815161262989478	-0.4020809512830359	0.0	1.0468223926026847	-0.35815168042943984	0.0	1.038098905107523	-0.3882600874765853	0.0	0.9793180122218286	-0.40043586462708086	0.0	0.9047488698139337	-0.37406012467394295	0.0	0.8348971173771971	-0.3532901314710551	0.0	0.971105895778695	-0.4009269674788542	0.0	0.8991144099039146	-0.39022345756299387	0.0	0.8406563417114782	-0.373906856966008	0.0
91	3.0459722222222223	0.9017233329342121	-0.5334923002956364	0.0	0.8997890361547664	-0.5309358827942514	0.0	0.9703988029723793	-0.6253290579206412	0.0	0.930709583399758	-0.7399543291831545	0.0	0.9729229402106342	-0.7684871007141088	0.0	0.9620142225528376	-0.771749284650207	0.0	0.9170589428411181	-0.753131399255009	0.0	0.8988713536684414	-0.5294315397769724	0.0	0.9679041940041508	-0.624703734516819	0.0	0.9360613073055345	-0.7324301204084608	0.0	0.9710284747482245	-0.7593357280678125	0.0	0.969382030957852	-0.7565028333849356	0.0	0.9150478935272527	-0.7476990592597755	0.0	0.9834010005665994	-0.41634140599048153	0.0	1.0475748342569586	-0.3713169429166156	0.0	1.039394112211682	-0.4007369671637208	0.0	0.9800775833445654	-0.41608195967952016	0.0	0.904487341677882	-0.39433090637360296	0.0	0.8332609784759019	-0.37972912263980957	0.0	0.974309293073982	-0.4167716051713087	0.0	0.9011410618828541	-0.4072616845428973	0.0	0.8399411182500173	-0.39401853776624013	0.0
92	3.0794444444444444	0.8978889513504112	-0.5468226220680606	0.0	0.8964931482694382	-0.5445680903122123	0.0	0.9740631327169365	-0.6316328793315847	0.0	0.9305803607839983	-0.7434857459477608	0.0	0.9734800973351861	-0.769689450086518	0.0	0.9626844741905427	-0.7732327164005419	0.0	0.9169877412933138	-0.7562478233938271	0.0	0.8972749402548198	-0.542966929913805	0.0	0.9718629345523421	-0.6302388272918752	0.0	0.9356546037672737	-0.7358402192195234	0.0	0.9722286180941192	-0.7616121487567404	0.0	0.9699185416778074	-0.758761687040923	0.0	0.9136819586590494	-0.7508937354970685	0.0	0.9853526373919023	-0.43378147212123275	0.0	1.0476540169825574	-0.38716186515822476	0.0	1.0403154839874893	-0.41607639600042107	0.0	0.9805732885922387	-0.435685248967525	0.0	0.904503785173824	-0.42266833452118785	0.0	0.8333197878524591	-0.41838641483402855	0.0	0.9768405341845622	-0.43593156232987057	0.0	0.9031138077282459	-0.4321215675054965	0.0	0.8403776533694542	-0.426269792267703	0.0
93	3.1129166666666666	0.8949743139228956	-0.5634510131486193	0.0	0.8943571753962511	-0.5616831866238137	0.0	0.9770195133091323	-0.6421158684823015	0.0	0.9302119151421921	-0.7511433223056373	0.0	0.973851792897326	-0.7747865242255817	0.0	0.9629796563957175	-0.7784518151173143	0.0	0.9166785889303267	-0.7634446885690955	0.0	0.8963874482885783	-0.5599674954222817	0.0	0.9753210677927993	-0.6399227970772992	0.0	0.9349823566323542	-0.7436144190937479	0.0	0.9738749641213028	-0.7677959877954892	0.0	0.9708174386318869	-0.7641986266087483	0.0	0.9126978137098967	-0.7578500830832894	0.0	0.986830983174291	-0.4532050621724434	0.0	1.046123371274824	-0.4046217747677367	0.0	1.0402145875661535	-0.4333175838594514	0.0	0.9801753944719805	-0.4580521756563471	0.0	0.9055156876391627	-0.4580809923008565	0.0	0.8375918815017023	-0.4676854069841394	0.0	0.977970540217071	-0.45717644976334654	0.0	0.9055264283444681	-0.4639360793341855	0.0	0.8445902706057241	-0.46936802585686943	0.0
94	3.146388888888889	0.8935466623319519	-0.5831054721717897	0.0	0.893637920577882	-0.5819481933806562	0.0	0.978849227774022	-0.6576412333432213	0.0	0.9297084050535502	-0.7639034909239933	0.0	0.9740946246352403	-0.7853236109402758	0.0	0.9628175499680255	-0.7888732131006717	0.0	0.9162002969188704	-0.7757475220589705	0.0	0.8966593281435303	-0.5800305675471751	0.0	0.9778874797153976	-0.6546133513180163	0.0	0.934152953582656	-0.7567585468639701	0.0	0.9759221622539979	-0.7791614054030558	0.0	0.9718954077008951	-0.773929391032082	0.0	0.9122571645495646	-0.7696340381486088	0.0	0.9869464707244295	-0.4730724341902208	0.0	1.041930624148478	-0.42216190679167886	0.0	1.0382456752987042	-0.4510596716812358	0.0	0.9781672876778559	-0.4815542733132466	0.0	0.9086676347799219	-0.49817778036212035	0.0	0.8491284514852123	-0.5235705011869533	0.0	0.977174883811193	-0.47909715502072436	0.0	0.9097053293736189	-0.5004676813249003	0.0	0.8557821693681438	-0.5194440431348019	0.0
95	3.1798611111111112	0.8937622698189179	-0.6050197138179757	0.0	0.894281380843101	-0.6045655868861707	0.0	0.979353466131872	-0.6782019363351275	0.0	0.9292567034685285	-0.7818388535649908	0.0	0.9744696772261925	-0.8017720490681736	0.0	0.9624182931567484	-0.8049054836692042	0.0	0.9156812079919994	-0.793192589882071	0.0	0.8982651527119486	-0.6023595698665282	0.0	0.9792940785884864	-0.6743389890551589	0.0	0.933354524991915	-0.7752311468564654	0.0	0.978386626064973	-0.795894996273473	0.0	0.9728339209297913	-0.7883165478428539	0.0	0.912249203224632	-0.7865395704966276	0.0	0.9846987672096462	-0.49181330339442025	0.0	1.0341897361013703	-0.4380585885462317	0.0	1.033575917327129	-0.4676668591692984	0.0	0.9740695112720301	-0.5043433961920406	0.0	0.9153053283654728	-0.538880808580756	0.0	0.8706126735533334	-0.5791246115889354	0.0	0.9742641330650919	-0.5002589214197001	0.0	0.9173074607825027	-0.5378036991363478	0.0	0.8764784404193867	-0.5699640540823098	0.0
96	3.2133333333333334	0.8953386698341651	-0.6276816037561266	0.0	0.8959288816543487	-0.6279858357621387	0.0	0.9786570901704131	-0.7024159778737706	0.0	0.9290667425486643	-0.8037003981361248	0.0	0.9752954408153935	-0.8228790396317944	0.0	0.9622923122382582	-0.8253115685294135	0.0	0.9153013288328515	-0.8144450806284145	0.0	0.9009106421686816	-0.6254981549556545	0.0	0.9794767745423353	-0.69783447795375	0.0	0.932876876699322	-0.7975175678791689	0.0	0.981178488494703	-0.8166875228429414	0.0	0.9732908121755198	-0.8065818504701495	0.0	0.9124717358188482	-0.8076434955427381	0.0	0.9794584971026468	-0.508108711449921	0.0	1.022421354613393	-0.4508335157763947	0.0	1.0256569041951762	-0.4816548135334087	0.0	0.9678661844489732	-0.5245873491288664	0.0	0.9262182177920608	-0.574716984796475	0.0	0.9026727984043849	-0.6250970400300968	0.0	0.9694395370535389	-0.5192464587350898	0.0	0.9293000253841158	-0.5704876609690331	0.0	0.9069834719719355	-0.6121592741534645	0.0
97	3.2468055555555555	0.8979191723118071	-0.6488598702129187	0.0	0.8982297135353113	-0.6498523582309221	0.0	0.9771326245918124	-0.7274995785245028	0.0	0.9293293814928166	-0.8270640611381285	0.0	0.9767464512174071	-0.8456276338316855	0.0	0.9630809618544328	-0.8472582282730952	0.0	0.9152875790727228	-0.8370919285640835	0.0	0.9041925675743417	-0.6471512993715182	0.0	0.9785817447504607	-0.7224423908082032	0.0	0.9330229559356659	-0.8208887092561933	0.0	0.9839405399616897	-0.8389987272124553	0.0	0.9730102445620026	-0.826905159863692	0.0	0.9128426475481002	-0.8307992181886676	0.0	0.9713177241818716	-0.5209028246642108	0.0	1.006677096432627	-0.45950836747216717	0.0	1.0144423730886487	-0.49188707259992903	0.0	0.9599871100751152	-0.5405705110582866	0.0	0.9408452878036732	-0.5998526545379946	0.0	0.9422578332009305	-0.6519934768475153	0.0	0.9632166867556741	-0.5345720045391504	0.0	0.9450268101219094	-0.5925575202346058	0.0	0.944253547574215	-0.6367199617945931	0.0
98	3.2802777777777776	0.9013735806123059	-0.6658763160698414	0.0	0.901116288546669	-0.6673266113054388	0.0	0.9750945436968487	-0.7498393607763822	0.0	0.9301357890087312	-0.8489592724472913	0.0	0.9785563284403688	-0.8660963208698806	0.0	0.9649969469165625	-0.8671341428393757	0.0	0.9158181115949253	-0.8582399612532599	0.0	0.9079674750874909	-0.6644433089302352	0.0	0.9768565167876976	-0.7446100746724582	0.0	0.9338849361440222	-0.8421615239146183	0.0	0.9860528360806924	-0.8596361558386804	0.0	0.9718500463473722	-0.8467524799101654	0.0	0.9134217409793034	-0.8529610611162297	0.0	0.9610007494245597	-0.5291707679163721	0.0	0.9875593901533428	-0.46344497209023106	0.0	1.0004312228057382	-0.4973667375833988	0.0	0.951068418324635	-0.5506082650238326	0.0	0.9569413033219101	-0.6095351038526169	0.0	0.9825209739485057	-0.6532696591937921	0.0	0.9560840747307927	-0.544531453748389	0.0	0.9618246454040538	-0.5992681282912773	0.0	0.9820663426205529	-0.6369191943724438	0.0
99	3.31375	0.9056431922621512	-0.6759668877824824	0.0	0.9047092469853412	-0.6775548391452426	0.0	0.9725845994718022	-0.765846576946045	0.0	0.9313877953092581	-0.8663300699479259	0.0	0.9798104855016077	-0.8808910800284198	0.0	0.9672431390272829	-0.8818055347971764	0.0	0.9169299061160647	-0.8749036473582872	0.0	0.9121143297252012	-0.6744751565293522	0.0	0.9744139963092966	-0.7607527203269169	0.0	0.9351213557798217	-0.8582437842176619	0.0	0.9867467945947147	-0.8753393474704037	0.0	0.9697551566901714	-0.863171857666897	0.0	0.914239398996978	-0.870558404795941	0.0	0.9494297060483686	-0.5316904401640732	0.0	0.9660654791638273	-0.4619699995104363	0.0	0.9844090203416487	-0.49697574492296437	0.0	0.9417021114840329	-0.5529900057143883	0.0	0.9709714661303265	-0.6012955512816127	0.0	1.0149366990837438	-0.627708567344049	0.0	0.9480269349701121	-0.5472340429029557	0.0	0.9754234059137901	-0.5886590272609817	0.0	1.012554509801434	-0.6114733761627901	0.0
100	3.3472222222222223	0.9105122635568048	-0.6767453430972512	0.0	0.9091424630340064	-0.678160638888183	0.0	0.9695464666181499	-0.7726502228637979	0.0	0.9328229549830153	-0.8761405455988477	0.0	0.9792812726757901	-0.8880399912013213	0.0	0.9682649063284996	-0.8893877921389505	0.0	0.9185281729648817	-0.8843591246291691	0.0	0.9162643018952377	-0.6748842131207812	0.0	0.971119886317092	-0.7679864764268738	0.0	0.9360624734279877	-0.8664165340204671	0.0	0.9853347579838967	-0.8834100431197536	0.0	0.9668183202301208	-0.8732396653795901	0.0	0.9151805780564463	-0.8801541854219261	0.0	0.9372783846638448	-0.5271469033898031	0.0	0.9431698526462359	-0.45427644640417697	0.0	0.9669969238295124	-0.4895784236893443	0.0	0.9322213808557716	-0.546246881103049	0.0	0.9792385298001044	-0.5754666519806944	0.0	1.0326775429769486	-0.579627970157263	0.0	0.9384783000261824	-0.5410518192488115	0.0	0.9814525631122719	-0.56203062778304	0.0	1.0289593612242394	-0.5649367951428753	0.0
